<svg width="55" height="70" viewBox="0 0 55 70" fill="none" xmlns="http://www.w3.org/2000/svg">
<path d="M24.6932 0H36.1548V52.5323C30.284 53.6428 25.9621 54.0797 21.2858 54.0797C7.28702 54.0651 0 47.8111 0 35.7999C0 24.227 7.72954 16.7163 19.7074 16.7163C21.5661 16.7163 22.9821 16.8626 24.6932 17.3008V0ZM25.0949 26.7677C23.7525 26.3293 22.6463 26.1832 21.2301 26.1832C15.4331 26.1832 12.0846 29.7193 12.0846 35.9162C12.0846 41.9497 15.2857 45.2812 21.1565 45.2812C22.4249 45.2812 23.4575 45.2098 25.0949 44.9905V26.7677Z" fill="#2BA977"/>
<path d="M54.8978 18.1267V44.4288C54.8978 53.4868 54.2193 57.8427 52.2278 61.5982C50.3691 65.2087 47.9205 67.4854 42.861 70L32.2255 64.9882C37.2851 62.6368 39.7336 60.5591 41.2974 57.3883C42.9345 54.1459 43.4508 50.3905 43.4508 40.5126V18.1269H54.8978V18.1267ZM42.2958 0H53.7574V11.6459H42.2958V0Z" fill="#2BA977"/>
</svg>
