<svg width="27" height="25" viewBox="0 0 27 25" fill="none" xmlns="http://www.w3.org/2000/svg">
<path d="M9.4978 20.13C9.4978 20.2334 9.3789 20.3161 9.22899 20.3161C9.0584 20.3316 8.9395 20.2489 8.9395 20.13C8.9395 20.0266 9.0584 19.9439 9.20831 19.9439C9.3634 19.9284 9.4978 20.0111 9.4978 20.13ZM7.89009 19.8973C7.85391 20.0007 7.9573 20.1196 8.11238 20.1506C8.24679 20.2023 8.40187 20.1506 8.43289 20.0472C8.46391 19.9439 8.36569 19.825 8.2106 19.7784C8.07619 19.7423 7.92628 19.7939 7.89009 19.8973ZM10.175 19.8095C10.0251 19.8456 9.9217 19.9439 9.93721 20.0628C9.95272 20.1661 10.0871 20.2334 10.2422 20.1972C10.3921 20.161 10.4955 20.0628 10.48 19.9594C10.4645 19.8611 10.3249 19.7939 10.175 19.8095ZM13.5765 0C6.40645 0 0.921631 5.44346 0.921631 12.6135C0.921631 18.3465 4.52993 23.2523 9.6839 24.9789C10.3456 25.0978 10.5782 24.6894 10.5782 24.3534C10.5782 24.0329 10.5627 22.265 10.5627 21.1794C10.5627 21.1794 6.94408 21.9548 6.18416 19.6389C6.18416 19.6389 5.59484 18.1345 4.74705 17.7468C4.74705 17.7468 3.56324 16.9352 4.82976 16.9507C4.82976 16.9507 6.11696 17.0541 6.82518 18.2845C7.9573 20.2799 9.8545 19.7061 10.5937 19.3649C10.7126 18.5378 11.0486 17.9639 11.4208 17.6228C8.53111 17.3023 5.61552 16.8835 5.61552 11.9105C5.61552 10.4889 6.0084 9.77549 6.83552 8.86566C6.70111 8.52964 6.26171 7.14422 6.96993 5.35558C8.05035 5.01957 10.5369 6.75134 10.5369 6.75134C11.5708 6.46185 12.6822 6.31194 13.7833 6.31194C14.8844 6.31194 15.9958 6.46185 17.0297 6.75134C17.0297 6.75134 19.5163 5.0144 20.5967 5.35558C21.3049 7.14939 20.8655 8.52964 20.7311 8.86566C21.5582 9.78066 22.0648 10.494 22.0648 11.9105C22.0648 16.899 19.02 17.2971 16.1302 17.6228C16.6058 18.0312 17.0091 18.8066 17.0091 20.0214C17.0091 21.7635 16.9936 23.9192 16.9936 24.3431C16.9936 24.6791 17.2313 25.0875 17.8879 24.9686C23.0574 23.2523 26.5623 18.3465 26.5623 12.6135C26.5623 5.44346 20.7466 0 13.5765 0ZM5.94637 17.8295C5.87916 17.8812 5.89467 18.0001 5.98255 18.0984C6.06527 18.1811 6.18416 18.2173 6.25137 18.1501C6.31857 18.0984 6.30306 17.9795 6.21518 17.8812C6.13247 17.7985 6.01357 17.7623 5.94637 17.8295ZM5.38806 17.4108C5.35188 17.478 5.40357 17.5607 5.50696 17.6124C5.58967 17.6641 5.69306 17.6486 5.72925 17.5762C5.76544 17.509 5.71374 17.4263 5.61035 17.3746C5.50696 17.3436 5.42425 17.3591 5.38806 17.4108ZM7.06298 19.2512C6.98026 19.3184 7.01128 19.4734 7.13018 19.5717C7.24908 19.6906 7.39899 19.7061 7.4662 19.6234C7.5334 19.5562 7.50238 19.4011 7.39899 19.3028C7.28526 19.1839 7.13018 19.1684 7.06298 19.2512ZM6.47366 18.4912C6.39094 18.5429 6.39094 18.6773 6.47366 18.7962C6.55637 18.9151 6.69594 18.9668 6.76315 18.9151C6.84586 18.8479 6.84586 18.7135 6.76315 18.5946C6.69077 18.4757 6.55637 18.424 6.47366 18.4912Z" fill="#FAFAFA"/>
</svg>
