<svg width="70" height="70" viewBox="0 0 70 70" fill="none" xmlns="http://www.w3.org/2000/svg">
<path d="M0 0H70V70H0V0Z" fill="#FFD43B"/>
<path d="M64.2709 53.3051C63.7586 50.1111 61.6759 47.4296 55.5076 44.9277C53.365 43.9429 50.9763 43.2376 50.2643 41.614C50.0114 40.6691 49.9782 40.1368 50.1379 39.5646C50.597 37.7081 52.8128 37.1292 54.5694 37.6615C55.7006 38.0408 56.7719 38.9125 57.4173 40.3032C60.4382 38.347 60.4316 38.3602 62.5409 37.0162C61.769 35.8184 61.3565 35.2661 60.8508 34.7538C59.0342 32.7243 56.559 31.6797 52.5998 31.7595C51.9145 31.846 51.2225 31.9391 50.5371 32.0257C48.5609 32.5247 46.6778 33.5627 45.5732 34.9534C42.2595 38.7129 43.2044 45.2937 47.2367 48.0019C51.2091 50.9829 57.0447 51.6616 57.7899 54.4496C58.5152 57.8631 55.2815 58.9676 52.0675 58.5751C49.6987 58.0827 48.3813 56.8783 46.9572 54.6892C44.3356 56.2063 44.3356 56.2063 41.6408 57.7567C42.2796 59.154 42.9515 59.7861 44.0229 60.9971C49.0932 66.1407 61.7823 65.8878 64.0581 58.1027C64.1512 57.8364 64.7634 56.0532 64.2709 53.3051ZM38.0542 32.172H31.5067C31.5067 37.8279 31.4801 43.4439 31.4801 49.0997C31.4801 52.6996 31.6664 55.9999 31.0809 57.0113C30.1227 59.0008 27.6408 58.7547 26.5096 58.3687C25.3585 57.8031 24.7729 56.998 24.0942 55.8602C23.9079 55.5342 23.7682 55.2813 23.7215 55.2613C21.945 56.3459 20.1749 57.4371 18.3983 58.5218C19.2834 60.3383 20.5875 61.9153 22.2576 62.94C24.7529 64.4371 28.1065 64.8963 31.6132 64.0911C33.8955 63.4257 35.865 62.0484 36.8964 59.9524C38.3869 57.2043 38.0675 53.8773 38.0542 50.1977C38.0875 44.1958 38.0542 38.1939 38.0542 32.172Z" fill="#323330"/>
</svg>
