<svg width="26" height="25" viewBox="0 0 26 25" fill="none" xmlns="http://www.w3.org/2000/svg">
<path d="M6.51774 25H1.33459V8.30878H6.51774V25ZM3.92337 6.03194C2.26597 6.03194 0.921631 4.65914 0.921631 3.00174C0.921631 2.20563 1.23788 1.44213 1.80082 0.87919C2.36376 0.316254 3.12726 0 3.92337 0C4.71948 0 5.48299 0.316254 6.04592 0.87919C6.60886 1.44213 6.92511 2.20563 6.92511 3.00174C6.92511 4.65914 5.58022 6.03194 3.92337 6.03194ZM25.9166 25H20.7446V16.8748C20.7446 14.9384 20.7056 12.4551 18.0498 12.4551C15.355 12.4551 14.942 14.5589 14.942 16.7353V25H9.76446V8.30878H14.7356V10.5856H14.8081C15.5001 9.2742 17.1904 7.89024 19.7122 7.89024C24.9579 7.89024 25.9222 11.3446 25.9222 15.8313V25H25.9166Z" fill="#FAFAFA"/>
</svg>
