<svg width="70" height="73" viewBox="0 0 70 73" fill="none" xmlns="http://www.w3.org/2000/svg">
<g clip-path="url(#clip0_3_157)">
<path d="M69.7288 43.2266C69.309 41.9554 68.2095 41.07 66.7877 40.8575C66.1172 40.7575 65.3494 40.8001 64.4408 40.9874C62.857 41.3142 61.682 41.4386 60.8246 41.4626C64.0612 35.998 66.6931 29.7664 68.2082 23.9003C70.6582 14.415 69.349 10.0939 67.8191 8.13936C63.7703 2.96593 57.8632 0.186707 50.7369 0.101668C46.9353 0.0551839 43.598 0.80577 41.857 1.34554C40.2361 1.05952 38.4932 0.899832 36.6644 0.870301C33.2363 0.815614 30.2075 1.56292 27.6194 3.09882C26.1866 2.61429 23.887 1.93124 21.2313 1.49538C14.9855 0.469988 9.9515 1.26897 6.26939 3.87018C1.81072 7.01964 -0.256192 12.4917 0.126074 20.1342C0.24748 22.5607 1.60482 29.9435 3.74201 36.9452C4.97029 40.9696 6.28006 44.3116 7.63494 46.8792C9.55639 50.52 11.6124 52.664 13.9204 53.434C15.2141 53.8649 17.5646 54.1668 20.0367 52.1078C20.3501 52.4874 20.7681 52.8644 21.323 53.2147C22.0276 53.659 22.8892 54.0222 23.7497 54.2374C26.8508 55.0126 29.7555 54.8187 32.2337 53.7321C32.249 54.1728 32.2607 54.5939 32.2706 54.9576C32.287 55.5474 32.3034 56.1257 32.325 56.6666C32.4718 60.3235 32.7206 63.167 33.4578 65.1566C33.4983 65.2659 33.5527 65.4327 33.6101 65.6096C33.9779 66.7356 34.5929 68.6207 36.1575 70.097C37.7776 71.6264 39.7373 72.0953 41.5322 72.0953C42.4323 72.0953 43.2912 71.9772 44.0445 71.8158C46.7297 71.2403 49.7793 70.3636 51.9854 67.2224C54.0712 64.2528 55.0851 59.7802 55.2686 52.7329C55.2924 52.5336 55.3142 52.3433 55.3353 52.162L55.379 51.7896L55.8704 51.8328L55.997 51.8412C58.7319 51.9659 62.0761 51.386 64.1299 50.4319C65.7527 49.6789 70.9532 46.9333 69.7288 43.2266Z" fill="black"/>
<path d="M65.0524 43.9475C56.9204 45.625 56.3612 42.8717 56.3612 42.8717C64.9472 30.1315 68.5366 13.9596 65.4394 10.0016C56.989 -0.795123 42.3615 4.31105 42.1173 4.44339L42.0388 4.45761C40.4321 4.12402 38.6343 3.9255 36.6133 3.89242C32.9339 3.83226 30.1427 4.8571 28.0246 6.46327C28.0246 6.46327 1.93049 -4.28665 3.14428 19.9831C3.4024 25.1462 10.5446 59.05 19.0633 48.8094C22.1769 45.0647 25.1855 41.8986 25.1855 41.8986C26.6796 42.8912 28.4684 43.3976 30.3437 43.2157L30.4894 43.0921C30.444 43.557 30.4648 44.0117 30.5476 44.5501C28.353 47.002 28.9981 47.4324 24.611 48.3356C20.1718 49.2505 22.7796 50.8791 24.4822 51.3051C26.5464 51.8211 31.3217 52.5523 34.5483 48.0353L34.4198 48.5508C35.2795 49.2396 35.8832 53.0305 35.7821 56.4673C35.6809 59.9039 35.6133 62.2634 36.2906 64.1064C36.9685 65.9493 37.6436 70.096 43.411 68.8603C48.2297 67.8276 50.7271 65.1514 51.0746 60.6873C51.321 57.5138 51.879 57.983 51.914 55.1455L52.3617 53.8024C52.8776 49.5004 52.4437 48.1125 55.4124 48.758L56.1343 48.8215C58.319 48.9207 61.1792 48.4698 62.8578 47.6897C66.4721 46.0125 68.6159 43.2116 65.0519 43.9475H65.0524Z" fill="#336791"/>
<path d="M29.5521 22.292C28.8192 22.19 28.1556 22.2844 27.8198 22.5387C27.6312 22.6817 27.5726 22.8474 27.5568 22.9614C27.5147 23.2636 27.7263 23.5977 27.8565 23.77C28.2245 24.2578 28.7621 24.593 29.2942 24.6668C29.3713 24.6778 29.4481 24.6827 29.5244 24.6827C30.4117 24.6827 31.2187 23.9917 31.2897 23.4818C31.3786 22.843 30.4514 22.4173 29.5521 22.2923M53.8289 22.3123C53.7589 21.8116 52.8681 21.6689 52.0226 21.7865C51.1782 21.904 50.3596 22.2852 50.4279 22.787C50.4826 23.1772 51.1872 23.8432 52.0212 23.8432C52.0918 23.8432 52.1629 23.8386 52.2345 23.8285C52.7912 23.7514 53.1997 23.3978 53.3939 23.1941C53.6892 22.8835 53.8604 22.5373 53.8289 22.3123Z" fill="#FAFAFA"/>
<path d="M67.7584 43.7568C67.4483 42.8192 66.4502 42.5176 64.7921 42.8599C59.8689 43.876 58.1057 43.1722 57.5269 42.7459C61.3536 36.9162 64.5017 29.8692 66.2 23.2944C67.0045 20.1799 67.4488 17.2875 67.4852 14.9299C67.5254 12.3424 67.0846 10.4409 66.1757 9.27933C62.5111 4.59671 57.1326 2.08492 50.622 2.01601C46.1461 1.9657 42.3645 3.11113 41.6314 3.43324C40.0876 3.04933 38.4046 2.81363 36.5723 2.78355C33.2123 2.72914 30.3078 3.53359 27.9032 5.17339C26.8587 4.78457 24.1593 3.85789 20.8581 3.32605C15.1509 2.4073 10.6156 3.10347 7.37924 5.39625C3.51748 8.13226 1.73467 13.023 2.08002 19.9322C2.19623 22.2567 3.52076 29.4076 5.61092 36.2559C8.36225 45.2694 11.3531 50.3721 14.4998 51.4218C14.8681 51.5446 15.2928 51.6304 15.7612 51.6304C16.9091 51.6304 18.3165 51.1131 19.7807 49.3527C21.5667 47.2102 23.4142 45.1197 25.3208 43.0839C26.5579 43.7478 27.9169 44.1185 29.3067 44.1557C29.3095 44.1921 29.313 44.2285 29.3163 44.2646C29.0771 44.5499 28.8428 44.8393 28.6136 45.1327C27.6505 46.3553 27.4501 46.6098 24.3501 47.248C23.4683 47.4301 21.1263 47.9128 21.0919 49.5545C21.0547 51.3482 23.8604 52.1016 24.1801 52.1814C25.294 52.4603 26.3673 52.5978 27.3908 52.5978C29.8799 52.5978 32.0704 51.7797 33.8209 50.1968C33.7671 56.5914 34.0337 62.8925 34.8015 64.8123C35.4304 66.384 36.9665 70.225 41.819 70.2247C42.531 70.2247 43.3147 70.1419 44.1768 69.957C49.2412 68.8715 51.4404 66.6331 52.2911 61.6984C52.7464 59.0611 53.5276 52.7635 53.8951 49.3855C54.6705 49.6275 55.6689 49.7382 56.7481 49.738C58.9991 49.738 61.5964 49.2597 63.2253 48.5037C65.0551 47.6538 68.3572 45.5686 67.7584 43.7568ZM55.6981 20.9302C55.6814 21.9275 55.5442 22.8328 55.3987 23.7778C55.242 24.7942 55.0801 25.845 55.0394 27.1206C54.9992 28.362 55.1542 29.6526 55.3041 30.9009C55.6071 33.4219 55.918 36.0174 54.7146 38.5784C54.5147 38.2242 54.3366 37.8581 54.1814 37.4822C54.0318 37.1196 53.7069 36.5372 53.2571 35.7311C51.5074 32.5932 47.41 25.2448 49.5075 22.2463C50.1323 21.3538 51.718 20.4361 55.6981 20.9302ZM50.8736 4.03535C56.7071 4.16414 61.3216 6.34644 64.5887 10.5213C67.0944 13.7235 64.3352 28.2942 56.3473 40.8644C56.2669 40.7622 56.1862 40.6604 56.105 40.5589L56.0038 40.4326C58.068 37.0237 57.6644 33.6508 57.3051 30.6605C57.1574 29.4333 57.018 28.2742 57.0535 27.1854C57.0902 26.0315 57.2428 25.0416 57.3904 24.0846C57.5717 22.9053 57.7563 21.6849 57.7054 20.2464C57.7434 20.0954 57.7587 19.9171 57.7388 19.7055C57.6089 18.326 56.0339 14.1974 52.8237 10.4606C51.0677 8.41664 48.507 6.12933 45.0105 4.5866C46.5144 4.27488 48.571 3.98421 50.8736 4.03535ZM18.2312 48.0642C16.6179 50.004 15.5039 49.6321 15.1375 49.5102C12.7504 48.7139 9.98045 43.6685 7.53838 35.6677C5.42526 28.7448 4.19041 21.7834 4.09252 19.8313C3.78408 13.6576 5.28061 9.35507 8.5408 7.04289C13.8466 3.28039 22.5698 5.53242 26.075 6.67457C26.0247 6.72433 25.9722 6.77082 25.9224 6.8214C20.1704 12.6303 20.3068 22.555 20.321 23.1618C20.3205 23.3958 20.3402 23.7272 20.367 24.183C20.466 25.8524 20.6503 28.9592 20.1581 32.4775C19.7009 35.747 20.7088 38.947 22.9228 41.2573C23.15 41.4939 23.3888 41.7192 23.6384 41.9321C22.6529 42.9876 20.5111 45.3217 18.2312 48.0642ZM24.3778 39.863C22.5933 38.0009 21.7828 35.4109 22.1539 32.7564C22.6734 29.0398 22.4817 25.8029 22.3787 24.0638C22.3642 23.8205 22.3513 23.6072 22.3439 23.439C23.1842 22.6939 27.0782 20.6076 29.8553 21.2439C31.1224 21.534 31.8946 22.3969 32.2156 23.8812C33.877 31.5656 32.4354 34.7683 31.2771 37.3422C31.0384 37.8724 30.8128 38.3736 30.6203 38.8921L30.471 39.2929C30.0931 40.3063 29.7415 41.2485 29.5236 42.1432C27.6265 42.1378 25.781 41.3273 24.3778 39.8628V39.863ZM24.669 50.2263C24.115 50.088 23.6168 49.8476 23.3245 49.6483C23.5687 49.5334 24.0032 49.377 24.7567 49.2217C28.4036 48.4711 28.9669 47.9412 30.1968 46.3796C30.4787 46.0214 30.7983 45.6156 31.241 45.1212L31.2416 45.1207C31.9008 44.3824 32.2024 44.5076 32.7493 44.7346C33.1926 44.9178 33.6243 45.4734 33.7993 46.0848C33.8822 46.3736 33.9751 46.9216 33.6708 47.3481C31.1016 50.9455 27.3577 50.8992 24.669 50.2263ZM43.7546 67.9866C39.2932 68.9426 37.7136 66.6662 36.6726 64.0639C36.0008 62.3839 35.6705 54.808 35.9048 46.4417C35.9078 46.3304 35.8919 46.2229 35.8613 46.1217C35.8339 45.922 35.7923 45.7244 35.7366 45.5306C35.3883 44.3132 34.5392 43.295 33.5207 42.8728C33.116 42.7051 32.3733 42.3975 31.4808 42.6259C31.6712 41.8416 32.0012 40.956 32.3591 39.997L32.5092 39.5937C32.6782 39.139 32.8904 38.6678 33.1146 38.1691C34.3268 35.4763 35.9868 31.7879 34.1851 23.4554C33.5103 20.3344 31.2566 18.8103 27.8403 19.1644C25.7923 19.3763 23.9184 20.2026 22.9838 20.6765C22.7828 20.7782 22.599 20.8766 22.4273 20.9723C22.6882 17.8278 23.6737 11.9511 27.3601 8.23289C29.6814 5.89226 32.7726 4.73617 36.5389 4.79851C43.96 4.91992 48.7189 8.72835 51.4046 11.9021C53.719 14.6368 54.9721 17.3917 55.4723 18.8775C51.7111 18.495 49.1531 19.2374 47.8565 21.0913C45.0354 25.1239 49.3998 32.9508 51.4973 36.7125C51.882 37.4018 52.214 37.9977 52.3184 38.2509C53.0015 39.9062 53.8858 41.0115 54.5314 41.8181C54.7293 42.0653 54.9213 42.3051 55.0673 42.5146C53.9282 42.843 51.882 43.6017 52.0685 47.3946C51.9181 49.2977 50.8487 58.208 50.3054 61.356C49.5882 65.515 48.0577 67.064 43.7546 67.9869V67.9866ZM62.3768 46.676C61.212 47.2166 59.2626 47.6221 57.4109 47.7093C55.3656 47.805 54.3244 47.4802 54.0794 47.2803C53.9645 44.9167 54.8442 44.6698 55.7752 44.4084C55.9215 44.3674 56.0642 44.3272 56.2021 44.2791C56.2876 44.3488 56.3814 44.418 56.4842 44.4858C58.1282 45.5708 61.0602 45.6878 65.1998 44.8333L65.2452 44.8243C64.6868 45.3463 63.7314 46.0468 62.3768 46.676Z" fill="#FAFAFA"/>
</g>
<defs>
<clipPath id="clip0_3_157">
<rect width="70" height="72.1947" fill="white"/>
</clipPath>
</defs>
</svg>
