<svg width="18" height="18" viewBox="0 0 18 18" fill="none" xmlns="http://www.w3.org/2000/svg">
<path d="M1.25222 3.29011L1.25222 1.75713C1.25222 1.10803 1.77703 0.583221 2.42267 0.586674L15.8432 0.583222C16.4923 0.583222 17.0171 1.10803 17.0137 1.75368L17.0137 15.1777C17.0137 15.8268 16.4889 16.3516 15.8432 16.3481H14.3102C13.6542 16.3481 13.126 15.806 13.1398 15.15L13.3366 7.0259L3.41359 16.9489C2.95439 17.4081 2.21552 17.4081 1.75631 16.9489L0.651456 15.844C0.192251 15.3848 0.192251 14.6459 0.651456 14.1867L10.5744 4.26377L2.4503 4.46057C1.79084 4.47783 1.24877 3.94957 1.25222 3.29011Z" fill="#FAFAFA"/>
</svg>
