<svg width="70" height="70" viewBox="0 0 70 70" fill="none" xmlns="http://www.w3.org/2000/svg">
<path d="M34.2054 0.000572558C31.3506 0.0138377 28.6242 0.257317 26.2253 0.6818C19.1585 1.93028 17.8754 4.54345 17.8754 9.36259V15.7272H34.5753V17.8487H17.8754H11.6081C6.75471 17.8487 2.50491 20.7659 1.17563 26.3154C-0.357686 32.6764 -0.425696 36.6458 1.17563 43.2877C2.36271 48.2317 5.19762 51.7544 10.0511 51.7544H15.7928V44.1247C15.7928 38.6126 20.562 33.7505 26.2253 33.7505H42.9057C47.5489 33.7505 51.2556 29.9275 51.2556 25.2644V9.36259C51.2556 4.83684 47.4376 1.43713 42.9057 0.6818C40.0369 0.204256 37.0603 -0.0126928 34.2054 0.000572558ZM25.1743 5.11951C26.8993 5.11951 28.308 6.55119 28.308 8.31155C28.308 10.0657 26.8993 11.4841 25.1743 11.4841C23.4431 11.4841 22.0407 10.0657 22.0407 8.31155C22.0407 6.55119 23.4431 5.11951 25.1743 5.11951Z" fill="#5A9FD4"/>
<path d="M53.3383 17.8488V25.2644C53.3383 31.0137 48.464 35.8526 42.9057 35.8526H26.2254C21.6564 35.8526 17.8755 39.7631 17.8755 44.3388V60.2406C17.8755 64.7663 21.8109 67.4283 26.2254 68.7267C31.5116 70.2811 36.5808 70.562 42.9057 68.7267C47.11 67.5095 51.2556 65.0597 51.2556 60.2406V53.876H34.5753V51.7544H51.2556H59.6056C64.459 51.7544 66.2676 48.3691 67.9555 43.2877C69.699 38.0566 69.6248 33.026 67.9555 26.3154C66.756 21.4838 64.4652 17.8488 59.6056 17.8488H53.3383ZM43.9568 58.1191C45.6879 58.1191 47.0904 59.5375 47.0904 61.2916C47.0904 63.052 45.6879 64.4837 43.9568 64.4837C42.2318 64.4837 40.8231 63.052 40.8231 61.2916C40.8231 59.5375 42.2318 58.1191 43.9568 58.1191Z" fill="#FFD43B"/>
</svg>
