<svg width="70" height="61" viewBox="0 0 70 61" fill="none" xmlns="http://www.w3.org/2000/svg">
<path d="M67.2437 46.1859C63.5088 48.1327 44.161 56.0878 40.042 58.2352C35.9229 60.3829 33.6347 60.3621 30.3806 58.8066C27.1269 57.251 6.53738 48.9342 2.82841 47.1613C0.974879 46.2756 0 45.5276 0 44.8212V37.7472C0 37.7472 26.8051 31.9118 31.1324 30.3593C35.4595 28.8068 36.961 28.7507 40.6434 30.0996C44.3264 31.449 66.3462 35.4218 69.9857 36.7548L69.9841 43.7288C69.9847 44.4281 69.1448 45.1952 67.2437 46.1859Z" fill="#912626"/>
<path d="M67.2424 39.1538C63.5077 41.0997 44.1605 49.0551 40.0414 51.2022C35.9226 53.3502 33.6344 53.3292 30.3806 51.7736C27.1266 50.2192 6.53793 41.901 2.82923 40.1292C-0.87947 38.3563 -0.95711 37.1362 2.68598 35.7097C6.32906 34.2826 26.8048 26.2493 31.1327 24.6968C35.4598 23.1448 36.9609 23.0882 40.6434 24.4376C44.3261 25.7865 63.558 33.4414 67.197 34.7742C70.8373 36.1086 70.977 37.2073 67.2424 39.1538Z" fill="#C6302B"/>
<path d="M67.2437 34.7397C63.5088 36.6867 44.161 44.6416 40.042 46.7898C35.9229 48.9367 33.6347 48.9159 30.3806 47.3604C27.1266 45.8056 6.53738 37.488 2.82841 35.7151C0.974879 34.8294 0 34.0825 0 33.3758V26.3009C0 26.3009 26.8051 20.4659 31.1324 18.9134C35.4595 17.3608 36.961 17.3045 40.6434 18.6536C44.3267 20.0028 66.3465 23.9747 69.9857 25.308L69.9841 32.2828C69.9847 32.9819 69.1448 33.749 67.2437 34.7397Z" fill="#912626"/>
<path d="M67.2424 27.7076C63.5077 29.6541 44.1605 37.6089 40.0414 39.7569C35.9226 41.904 33.6344 41.883 30.3806 40.3274C27.1266 38.773 6.53793 30.4551 2.82923 28.683C-0.87947 26.9107 -0.95711 25.6903 2.68598 24.2632C6.32906 22.837 26.8051 14.8031 31.1327 13.2509C35.4598 11.6986 36.9609 11.6423 40.6434 12.9914C44.3261 14.3403 63.558 21.9947 67.197 23.328C70.8373 24.6621 70.977 25.7611 67.2424 27.7076Z" fill="#C6302B"/>
<path d="M67.2437 22.8693C63.5088 24.8157 44.161 32.7712 40.042 34.9194C35.9229 37.0665 33.6347 37.0455 30.3806 35.4899C27.1266 33.9352 6.53738 25.6173 2.82841 23.8452C0.974879 22.9587 0 22.2115 0 21.5056V14.4305C0 14.4305 26.8051 8.59573 31.1324 7.04347C35.4595 5.49066 36.961 5.43489 40.6434 6.78375C44.3267 8.13289 66.3465 12.1049 69.9857 13.4381L69.9841 20.4127C69.9847 21.1111 69.1448 21.8783 67.2437 22.8693Z" fill="#912626"/>
<path d="M67.2423 15.837C63.5077 17.7835 44.1604 25.7389 40.0414 27.886C35.9226 30.0332 33.6344 30.0121 30.3806 28.4574C27.1268 26.9019 6.53791 18.5845 2.82949 16.8122C-0.879484 15.0401 -0.956851 13.8195 2.68596 12.3927C6.32905 10.9662 26.8051 2.93339 31.1327 1.38059C35.4598 -0.17195 36.9609 -0.22772 40.6434 1.12142C44.3261 2.47056 63.558 10.125 67.197 11.4583C70.8373 12.7913 70.977 13.8905 67.2423 15.837Z" fill="#C6302B"/>
<path d="M43.5451 8.95518L37.528 9.57986L36.181 12.8211L34.0054 9.20423L27.0574 8.57983L32.2418 6.71017L30.6863 3.84021L35.5402 5.73857L40.1161 4.24044L38.8793 7.208L43.5451 8.95518ZM35.8218 24.6796L24.5921 20.022L40.6833 17.5519L35.8218 24.6796ZM20.2527 10.7568C25.0027 10.7568 28.8533 12.2494 28.8533 14.0904C28.8533 15.9319 25.0027 17.4243 20.2527 17.4243C15.5027 17.4243 11.6521 15.9316 11.6521 14.0904C11.6521 12.2494 15.5027 10.7568 20.2527 10.7568Z" fill="#FAFAFA"/>
<path d="M50.6563 9.84122L60.1798 13.6046L50.6645 17.3644L50.6563 9.84094" fill="#621B1C"/>
<path d="M40.1202 14.0089L50.6563 9.84119L50.6645 17.3644L49.6314 17.7684L40.1202 14.0089Z" fill="#9A2928"/>
</svg>
