<svg width="70" height="42" viewBox="0 0 70 42" fill="none" xmlns="http://www.w3.org/2000/svg">
<path d="M35 0C25.6701 0 19.8392 4.66365 17.5065 13.9901C21.0055 9.32643 25.0873 7.57822 29.7519 8.74369C32.4136 9.40868 34.3158 11.3398 36.4218 13.4765C39.8518 16.9571 43.8216 20.9856 52.4935 20.9856C61.8226 20.9856 67.6543 16.3219 69.9861 6.9946C66.488 11.6583 62.4062 13.4073 57.7408 12.2419C55.08 11.5769 53.1777 9.6458 51.0717 7.50909C47.6417 4.02842 43.6711 0 35 0V0ZM17.5065 20.9856C8.17744 20.9856 2.34568 25.6492 0.013855 34.9765C3.51203 30.3129 7.59382 28.5638 12.2592 29.7301C14.92 30.396 16.8223 32.3262 18.9283 34.462C22.3583 37.9427 26.3289 41.972 35 41.972C44.3299 41.972 50.1608 37.3083 52.4935 27.981C48.9945 32.6447 44.9127 34.3938 40.2481 33.2274C37.5865 32.5633 35.6842 30.6314 33.5782 28.4955C30.1482 25.0149 26.1784 20.9856 17.5065 20.9856V20.9856Z" fill="#06B6D4"/>
</svg>
